<svg version="1.1" xmlns="http://www.w3.org/2000/svg" xmlns:xlink="http://www.w3.org/1999/xlink" width="1000.4797315176365" height="3497.2642175581827"><desc>title%20High%20Level%20view%20of%20Socket-Pong%20core%20sections%0A%0Aparticipant%20ServerSideUser%0Aparticipant%20Server%0Aparticipant%20Client%0Aparticipant%20ClientSideUser%0A%0Aactivate%20Server%0Aactivate%20Client%0A%0AServerSideUser-%3EServer%3A%20Launches%20Server%0A%0AClientSideUser-%3EClient%3A%20Launches%20Client%0A%0AServer-%3EServer%3A%20getRole()%0AClient-%3EClient%3A%20getRole()%0A%0AServer-%3EServer%3A%20initializeSockets()%0Aactivate%20Server%0AClient-%3EClient%3A%20initializeSockets()%0Aactivate%20Client%0A%0AServer-%3EServer%3A%20initializeServerSocket()%0AClient-%3EClient%3A%20initializeClientSocket()%0A%0AClient%3C--%3EServer%3A%20Connection%20(Socket%20API)%0Aspace%0Adeactivate%20Server%0Adeactivate%20Client%0A%0AServer-%3EServer%3A%20chooseSide()%0Aactivate%20Server%0AClient-%3EClient%3A%20chooseSide()%0Aactivate%20Client%0A%0AServerSideUser-%3EServer%3A%20Chooses%20Side%0AServer--%3EClient%3A%20sendSideChoice%0AClient--%3EClient%3A%20receiveSideChoice%0Aspace%0Adeactivate%20Server%0Adeactivate%20Client%0A%0AServer-%3EServer%3A%20initializeNcursesEnvironment()%0AClient-%3EClient%3A%20initializeNcursesEnvironment()%0A%0AServer-%3EServer%3A%20setBallPositionFactor()%0Aactivate%20Server%0AClient-%3EClient%3A%20setBallPositionFactor()%0Aactivate%20Client%0A%0AServer--%3EClient%3A%20sendNrow%0AServer--%3EServer%3A%20receiveNrow%0AClient--%3EServer%3A%20sendNrow%0AClient--%3EClient%3A%20receiveNrow%0Aspace%0Adeactivate%20Server%0Adeactivate%20Client%0A%0AServer-%3EServer%3A%20gameLoop()%0Aactivate%20Server%0AClient-%3EClient%3A%20gameLoop()%0Aactivate%20Client%0A%0Anote%20over%20Server%2C%20Client%3A%20Game%20Loop%20(details%20were%20omitted)%0A%0Aloop%20%22until%20one%20side%20calls%20sendEndOfGameMessage()%22%0AServer--%3EClient%3A%20sendBall()%0AClient--%3EServer%3AsendBall()%0Aend%0A%0Aspace%0Adeactivate%20Server%0Adeactivate%20Client%0A%0AClient-%3EClient%3AfinishNcursesEnvironment()%0AServer-%3EServer%3AfinishNcursesEnvironment()%0A%0AClient-%3EClient%3AcloseSocket()%0AServer-%3EServer%3AcloseSocket()</desc><defs/><g><g/><g/><g/><g/><g/><g/><g/><g/><g/><g/><g/><g/><g/><g/><g/><g/><g/><g/><g/><g/><g/><g/><g/><g/><g/><g/><g/><g/><g/><g/><g/><g/><g/><g/><g/><g/><g/><g/><g/><g/><g/><g/><g/><g/><g/><g/><g/><g/><g/><g/><g/><g/><g/><g/><g/><g/><g/><g/><g/><g/><g/><g/><g/><g/><g/><g/><g/><g/><g/><g/><g/><g/><g/><g/><g/><g/><g/><g/><g/><g/><g/><g/><g/><g/><g/><g/><g/><g/><g/><g/><g/><g/><g/><g/><g><rect fill="white" stroke="none" x="0" y="0" width="1000" height="3497"/></g><g/><g><path fill="none" stroke="black" paint-order="fill stroke markers" d=" M 96.3494313823535 147.2909869581818 L 96.3494313823535 3497.2642175581827" stroke-miterlimit="10" stroke-width="2.094256833333333" stroke-dasharray="19.331601538461538,8.377027333333332"/><path fill="none" stroke="black" paint-order="fill stroke markers" d=" M 298.23119410077794 147.2909869581818 L 298.23119410077794 3497.2642175581827" stroke-miterlimit="10" stroke-width="2.094256833333333" stroke-dasharray="19.331601538461538,8.377027333333332"/><path fill="none" stroke="black" paint-order="fill stroke markers" d=" M 611.2588960490201 147.2909869581818 L 611.2588960490201 3497.2642175581827" stroke-miterlimit="10" stroke-width="2.094256833333333" stroke-dasharray="19.331601538461538,8.377027333333332"/><path fill="none" stroke="black" paint-order="fill stroke markers" d=" M 906.9469657846971 147.2909869581818 L 906.9469657846971 3497.2642175581827" stroke-miterlimit="10" stroke-width="2.094256833333333" stroke-dasharray="19.331601538461538,8.377027333333332"/></g><g><path fill="none" stroke="none"/><g><path fill="white" stroke="black" paint-order="fill stroke markers" d=" M 12.565540999999996 79.43706555818181 L 180.133321764707 79.43706555818181 L 180.133321764707 147.2909869581818 L 12.565540999999996 147.2909869581818 L 12.565540999999996 79.43706555818181 Z" stroke-miterlimit="10" stroke-width="4.02097312" stroke-dasharray=""/></g><g><g/><text fill="black" stroke="none" font-family="sans-serif" font-size="11pt" font-style="normal" font-weight="normal" text-decoration="normal" x="39.832764969999985" y="122.1599049581818" text-anchor="start" dominant-baseline="alphabetic" xml:space="preserve">ServerSideUser</text></g><path fill="none" stroke="none"/><g><path fill="white" stroke="black" paint-order="fill stroke markers" d=" M 246.96397013077794 79.43706555818181 L 349.4984180707779 79.43706555818181 L 349.4984180707779 147.2909869581818 L 246.96397013077794 147.2909869581818 L 246.96397013077794 79.43706555818181 Z" stroke-miterlimit="10" stroke-width="4.02097312" stroke-dasharray=""/></g><g><g/><text fill="black" stroke="none" font-family="sans-serif" font-size="11pt" font-style="normal" font-weight="normal" text-decoration="normal" x="274.23119410077794" y="122.1599049581818" text-anchor="start" dominant-baseline="alphabetic" xml:space="preserve">Server</text></g><path fill="none" stroke="none"/><g><path fill="white" stroke="black" paint-order="fill stroke markers" d=" M 562.8083396357828 79.43706555818181 L 659.7094524622573 79.43706555818181 L 659.7094524622573 147.2909869581818 L 562.8083396357828 147.2909869581818 L 562.8083396357828 79.43706555818181 Z" stroke-miterlimit="10" stroke-width="4.02097312" stroke-dasharray=""/></g><g><g/><text fill="black" stroke="none" font-family="sans-serif" font-size="11pt" font-style="normal" font-weight="normal" text-decoration="normal" x="590.0755636057828" y="122.1599049581818" text-anchor="start" dominant-baseline="alphabetic" xml:space="preserve">Client</text></g><path fill="none" stroke="none"/><g><path fill="white" stroke="black" paint-order="fill stroke markers" d=" M 825.9797410517576 79.43706555818181 L 987.9141905176365 79.43706555818181 L 987.9141905176365 147.2909869581818 L 825.9797410517576 147.2909869581818 L 825.9797410517576 79.43706555818181 Z" stroke-miterlimit="10" stroke-width="4.02097312" stroke-dasharray=""/></g><g><g/><text fill="black" stroke="none" font-family="sans-serif" font-size="11pt" font-style="normal" font-weight="normal" text-decoration="normal" x="853.2469650217577" y="122.1599049581818" text-anchor="start" dominant-baseline="alphabetic" xml:space="preserve">ClientSideUser</text></g></g><g><path fill="white" stroke="black" paint-order="fill stroke markers" d=" M 285.66565310077794 159.8565279581818 L 310.79673510077794 159.8565279581818 L 310.79673510077794 3472.133135558183 L 285.66565310077794 3472.133135558183 L 285.66565310077794 159.8565279581818" stroke-miterlimit="10" stroke-width="2.094256833333333" stroke-dasharray=""/><path fill="white" stroke="black" paint-order="fill stroke markers" d=" M 598.69335504902 159.8565279581818 L 623.8244370490202 159.8565279581818 L 623.8244370490202 3472.133135558183 L 598.69335504902 3472.133135558183 L 598.69335504902 159.8565279581818" stroke-miterlimit="10" stroke-width="2.094256833333333" stroke-dasharray=""/><path fill="white" stroke="black" paint-order="fill stroke markers" d=" M 298.23119410077794 609.7028957581817 L 323.36227610077793 609.7028957581817 L 323.36227610077793 1052.0099389581817 L 298.23119410077794 1052.0099389581817 L 298.23119410077794 609.7028957581817" stroke-miterlimit="10" stroke-width="2.094256833333333" stroke-dasharray=""/><path fill="white" stroke="black" paint-order="fill stroke markers" d=" M 611.2588960490201 712.7403319581817 L 636.3899780490202 712.7403319581817 L 636.3899780490202 1052.0099389581817 L 611.2588960490201 1052.0099389581817 L 611.2588960490201 712.7403319581817" stroke-miterlimit="10" stroke-width="2.094256833333333" stroke-dasharray=""/><path fill="white" stroke="black" paint-order="fill stroke markers" d=" M 298.23119410077794 1155.0473751581817 L 323.36227610077793 1155.0473751581817 L 323.36227610077793 1564.6840117581817 L 298.23119410077794 1564.6840117581817 L 298.23119410077794 1155.0473751581817" stroke-miterlimit="10" stroke-width="2.094256833333333" stroke-dasharray=""/><path fill="white" stroke="black" paint-order="fill stroke markers" d=" M 611.2588960490201 1258.0848113581817 L 636.3899780490202 1258.0848113581817 L 636.3899780490202 1564.6840117581817 L 611.2588960490201 1564.6840117581817 L 611.2588960490201 1258.0848113581817" stroke-miterlimit="10" stroke-width="2.094256833333333" stroke-dasharray=""/><path fill="white" stroke="black" paint-order="fill stroke markers" d=" M 298.23119410077794 1873.7963203581817 L 323.36227610077793 1873.7963203581817 L 323.36227610077793 2386.470393158182 L 298.23119410077794 2386.470393158182 L 298.23119410077794 1873.7963203581817" stroke-miterlimit="10" stroke-width="2.094256833333333" stroke-dasharray=""/><path fill="white" stroke="black" paint-order="fill stroke markers" d=" M 611.2588960490201 1976.8337565581817 L 636.3899780490202 1976.8337565581817 L 636.3899780490202 2386.470393158182 L 611.2588960490201 2386.470393158182 L 611.2588960490201 1976.8337565581817" stroke-miterlimit="10" stroke-width="2.094256833333333" stroke-dasharray=""/><path fill="white" stroke="black" paint-order="fill stroke markers" d=" M 298.23119410077794 2489.507829358182 L 323.36227610077793 2489.507829358182 L 323.36227610077793 2997.1556857581822 L 298.23119410077794 2997.1556857581822 L 298.23119410077794 2489.507829358182" stroke-miterlimit="10" stroke-width="2.094256833333333" stroke-dasharray=""/><path fill="white" stroke="black" paint-order="fill stroke markers" d=" M 611.2588960490201 2592.545265558182 L 636.3899780490202 2592.545265558182 L 636.3899780490202 2997.1556857581822 L 611.2588960490201 2997.1556857581822 L 611.2588960490201 2592.545265558182" stroke-miterlimit="10" stroke-width="2.094256833333333" stroke-dasharray=""/><g><text fill="black" stroke="none" font-family="sans-serif" font-size="16pt" font-style="normal" font-weight="normal" text-decoration="normal" x="260.39166259765625" y="37.92508738181819" text-anchor="start" dominant-baseline="alphabetic" xml:space="preserve">High Level view of Socket-Pong core sections</text></g><g><rect fill="white" stroke="none" x="126.08787841568682" y="197.5531509581818" width="129.8393276517578" height="32.6704066"/><text fill="black" stroke="none" font-family="sans-serif" font-size="11pt" font-style="normal" font-weight="normal" text-decoration="normal" x="129.8575407156868" y="220.17112475818178" text-anchor="start" dominant-baseline="alphabetic" xml:space="preserve">Launches Server</text></g><g><path fill="none" stroke="black" paint-order="fill stroke markers" d=" M 96.3494313823535 230.2235575581818 L 264.97439558744463 230.2235575581818" stroke-miterlimit="10" stroke-width="2.094256833333333" stroke-dasharray=""/><g transform="translate(285.66565310077794,230.2235575581818) translate(-285.66565310077794,-230.2235575581818)"><path fill="black" stroke="none" paint-order="stroke fill markers" d=" M 264.7230847674446 219.75227339151513 L 285.66565310077794 230.2235575581818 L 264.7230847674446 240.69484172484846 Z"/></g></g><g><rect fill="white" stroke="none" x="703.2827051477424" y="267.9201805581818" width="124.20598872353516" height="32.6704066"/><text fill="black" stroke="none" font-family="sans-serif" font-size="11pt" font-style="normal" font-weight="normal" text-decoration="normal" x="707.0523674477424" y="290.5381543581818" text-anchor="start" dominant-baseline="alphabetic" xml:space="preserve">Launches Client</text></g><g><path fill="none" stroke="black" paint-order="fill stroke markers" d=" M 906.9469657846971 300.5905871581818 L 644.5156945623535 300.5905871581818" stroke-miterlimit="10" stroke-width="2.094256833333333" stroke-dasharray=""/><g transform="translate(623.8244370490202,300.5905871581818) translate(-623.8244370490202,-300.5905871581818)"><path fill="black" stroke="none" paint-order="stroke fill markers" d=" M 644.7670053823535 290.1193029915151 L 623.8244370490202 300.5905871581818 L 644.7670053823535 311.0618713248485 Z"/></g></g><g><rect fill="white" stroke="none" x="340.53518213411127" y="338.2872101581818" width="74.5393246" height="32.6704066"/><text fill="black" stroke="none" font-family="sans-serif" font-size="11pt" font-style="normal" font-weight="normal" text-decoration="normal" x="344.30484443411126" y="360.9051839581818" text-anchor="start" dominant-baseline="alphabetic" xml:space="preserve">getRole()</text></g><g><path fill="none" stroke="black" paint-order="fill stroke markers" d=" M 310.79673510077794 370.9576167581818 L 411.3210631007779 370.9576167581818 L 411.3210631007779 403.6280233581818 L 331.48799261411125 403.6280233581818" stroke-miterlimit="10" stroke-width="2.094256833333333" stroke-dasharray=""/><g transform="translate(310.79673510077794,403.6280233581818) translate(-310.79673510077794,-403.6280233581818)"><path fill="black" stroke="none" paint-order="stroke fill markers" d=" M 331.73930343411126 393.1567391915151 L 310.79673510077794 403.6280233581818 L 331.73930343411126 414.0993075248485 Z"/></g></g><g><rect fill="white" stroke="none" x="653.5628840823535" y="441.3246463581818" width="74.5393246" height="32.6704066"/><text fill="black" stroke="none" font-family="sans-serif" font-size="11pt" font-style="normal" font-weight="normal" text-decoration="normal" x="657.3325463823536" y="463.9426201581818" text-anchor="start" dominant-baseline="alphabetic" xml:space="preserve">getRole()</text></g><g><path fill="none" stroke="black" paint-order="fill stroke markers" d=" M 623.8244370490202 473.9950529581818 L 724.3487650490201 473.9950529581818 L 724.3487650490201 506.6654595581818 L 644.5156945623535 506.6654595581818" stroke-miterlimit="10" stroke-width="2.094256833333333" stroke-dasharray=""/><g transform="translate(623.8244370490202,506.6654595581818) translate(-623.8244370490202,-506.6654595581818)"><path fill="black" stroke="none" paint-order="stroke fill markers" d=" M 644.7670053823535 496.1941753915151 L 623.8244370490202 506.6654595581818 L 644.7670053823535 517.1367437248484 Z"/></g></g><g><rect fill="white" stroke="none" x="353.10072313411126" y="544.3620825581818" width="136.5893276517578" height="32.6704066"/><text fill="black" stroke="none" font-family="sans-serif" font-size="11pt" font-style="normal" font-weight="normal" text-decoration="normal" x="356.87038543411126" y="566.9800563581817" text-anchor="start" dominant-baseline="alphabetic" xml:space="preserve">initializeSockets()</text></g><g><path fill="none" stroke="black" paint-order="fill stroke markers" d=" M 310.79673510077794 577.0324891581818 L 423.88660410077796 577.0324891581818 L 423.88660410077796 609.7028957581817 L 344.05353361411125 609.7028957581817" stroke-miterlimit="10" stroke-width="2.094256833333333" stroke-dasharray=""/><g transform="translate(323.36227610077793,609.7028957581817) translate(-323.36227610077793,-609.7028957581817)"><path fill="black" stroke="none" paint-order="stroke fill markers" d=" M 344.30484443411126 599.231611591515 L 323.36227610077793 609.7028957581817 L 344.30484443411126 620.1741799248484 Z"/></g></g><g><rect fill="white" stroke="none" x="666.1284250823535" y="647.3995187581818" width="136.5893276517578" height="32.6704066"/><text fill="black" stroke="none" font-family="sans-serif" font-size="11pt" font-style="normal" font-weight="normal" text-decoration="normal" x="669.8980873823535" y="670.0174925581817" text-anchor="start" dominant-baseline="alphabetic" xml:space="preserve">initializeSockets()</text></g><g><path fill="none" stroke="black" paint-order="fill stroke markers" d=" M 623.8244370490202 680.0699253581818 L 736.9143060490201 680.0699253581818 L 736.9143060490201 712.7403319581817 L 657.0812355623534 712.7403319581817" stroke-miterlimit="10" stroke-width="2.094256833333333" stroke-dasharray=""/><g transform="translate(636.3899780490201,712.7403319581817) translate(-636.3899780490201,-712.7403319581817)"><path fill="black" stroke="none" paint-order="stroke fill markers" d=" M 657.3325463823535 702.269047791515 L 636.3899780490201 712.7403319581817 L 657.3325463823535 723.2116161248484 Z"/></g></g><g><rect fill="white" stroke="none" x="353.10072313411126" y="750.4369549581818" width="176.95599635292967" height="32.6704066"/><text fill="black" stroke="none" font-family="sans-serif" font-size="11pt" font-style="normal" font-weight="normal" text-decoration="normal" x="356.87038543411126" y="773.0549287581817" text-anchor="start" dominant-baseline="alphabetic" xml:space="preserve">initializeServerSocket()</text></g><g><path fill="none" stroke="black" paint-order="fill stroke markers" d=" M 323.36227610077793 783.1073615581818 L 423.88660410077796 783.1073615581818 L 423.88660410077796 815.7777681581817 L 344.05353361411125 815.7777681581817" stroke-miterlimit="10" stroke-width="2.094256833333333" stroke-dasharray=""/><g transform="translate(323.36227610077793,815.7777681581817) translate(-323.36227610077793,-815.7777681581817)"><path fill="black" stroke="none" paint-order="stroke fill markers" d=" M 344.30484443411126 805.306483991515 L 323.36227610077793 815.7777681581817 L 344.30484443411126 826.2490523248484 Z"/></g></g><g><rect fill="white" stroke="none" x="666.1284250823535" y="853.4743911581818" width="171.32266505410155" height="32.6704066"/><text fill="black" stroke="none" font-family="sans-serif" font-size="11pt" font-style="normal" font-weight="normal" text-decoration="normal" x="669.8980873823535" y="876.0923649581817" text-anchor="start" dominant-baseline="alphabetic" xml:space="preserve">initializeClientSocket()</text></g><g><path fill="none" stroke="black" paint-order="fill stroke markers" d=" M 636.3899780490201 886.1447977581818 L 736.9143060490201 886.1447977581818 L 736.9143060490201 918.8152043581817 L 657.0812355623534 918.8152043581817" stroke-miterlimit="10" stroke-width="2.094256833333333" stroke-dasharray=""/><g transform="translate(636.3899780490201,918.8152043581817) translate(-636.3899780490201,-918.8152043581817)"><path fill="black" stroke="none" paint-order="stroke fill markers" d=" M 657.3325463823535 908.343920191515 L 636.3899780490201 918.8152043581817 L 657.3325463823535 929.2864885248484 Z"/></g></g><g><rect fill="white" stroke="none" x="375.6909253007779" y="956.5118273581818" width="183.23932154824217" height="32.6704066"/><text fill="black" stroke="none" font-family="sans-serif" font-size="11pt" font-style="normal" font-weight="normal" text-decoration="normal" x="379.4605876007779" y="979.1298011581817" text-anchor="start" dominant-baseline="alphabetic" xml:space="preserve">Connection (Socket API)</text></g><g><path fill="none" stroke="black" paint-order="fill stroke markers" d=" M 590.5676385356868 989.1822339581818 L 344.05353361411125 989.1822339581818" stroke-miterlimit="10" stroke-width="2.094256833333333" stroke-dasharray="10.0524328"/><g transform="translate(323.36227610077793,989.1822339581818) translate(-323.36227610077793,-989.1822339581818)"><path fill="black" stroke="none" paint-order="stroke fill markers" d=" M 344.30484443411126 978.7109497915151 L 323.36227610077793 989.1822339581818 L 344.30484443411126 999.6535181248485 Z"/><g transform="translate(611.2588960490201,989.1822339581818) translate(-611.2588960490201,-989.1822339581818)"><path fill="black" stroke="none" paint-order="stroke fill markers" d=" M 590.3163277156867 978.7109497915151 L 611.2588960490201 989.1822339581818 L 590.3163277156867 999.6535181248485 Z"/></g></g></g><g><rect fill="white" stroke="none" x="353.10072313411126" y="1089.7065619581817" width="102.50599177529297" height="32.6704066"/><text fill="black" stroke="none" font-family="sans-serif" font-size="11pt" font-style="normal" font-weight="normal" text-decoration="normal" x="356.87038543411126" y="1112.3245357581818" text-anchor="start" dominant-baseline="alphabetic" xml:space="preserve">chooseSide()</text></g><g><path fill="none" stroke="black" paint-order="fill stroke markers" d=" M 310.79673510077794 1122.3769685581817 L 423.88660410077796 1122.3769685581817 L 423.88660410077796 1155.0473751581817 L 344.05353361411125 1155.0473751581817" stroke-miterlimit="10" stroke-width="2.094256833333333" stroke-dasharray=""/><g transform="translate(323.36227610077793,1155.0473751581817) translate(-323.36227610077793,-1155.0473751581817)"><path fill="black" stroke="none" paint-order="stroke fill markers" d=" M 344.30484443411126 1144.576090991515 L 323.36227610077793 1155.0473751581817 L 344.30484443411126 1165.5186593248484 Z"/></g></g><g><rect fill="white" stroke="none" x="666.1284250823535" y="1192.7439981581817" width="102.50599177529297" height="32.6704066"/><text fill="black" stroke="none" font-family="sans-serif" font-size="11pt" font-style="normal" font-weight="normal" text-decoration="normal" x="669.8980873823535" y="1215.3619719581818" text-anchor="start" dominant-baseline="alphabetic" xml:space="preserve">chooseSide()</text></g><g><path fill="none" stroke="black" paint-order="fill stroke markers" d=" M 623.8244370490202 1225.4144047581817 L 736.9143060490201 1225.4144047581817 L 736.9143060490201 1258.0848113581817 L 657.0812355623534 1258.0848113581817" stroke-miterlimit="10" stroke-width="2.094256833333333" stroke-dasharray=""/><g transform="translate(636.3899780490201,1258.0848113581817) translate(-636.3899780490201,-1258.0848113581817)"><path fill="black" stroke="none" paint-order="stroke fill markers" d=" M 657.3325463823535 1247.613527191515 L 636.3899780490201 1258.0848113581817 L 657.3325463823535 1268.5560955248484 Z"/></g></g><g><rect fill="white" stroke="none" x="144.5289836477425" y="1295.7814343581817" width="105.52265437294922" height="32.6704066"/><text fill="black" stroke="none" font-family="sans-serif" font-size="11pt" font-style="normal" font-weight="normal" text-decoration="normal" x="148.2986459477425" y="1318.3994081581818" text-anchor="start" dominant-baseline="alphabetic" xml:space="preserve">Chooses Side</text></g><g><path fill="none" stroke="black" paint-order="fill stroke markers" d=" M 96.3494313823535 1328.4518409581817 L 277.53993658744463 1328.4518409581817" stroke-miterlimit="10" stroke-width="2.094256833333333" stroke-dasharray=""/><g transform="translate(298.23119410077794,1328.4518409581817) translate(-298.23119410077794,-1328.4518409581817)"><path fill="black" stroke="none" paint-order="stroke fill markers" d=" M 277.2886257674446 1317.980556791515 L 298.23119410077794 1328.4518409581817 L 277.2886257674446 1338.9231251248484 Z"/></g></g><g><rect fill="white" stroke="none" x="405.3159253007779" y="1366.1484639581818" width="123.98932154824219" height="32.6704066"/><text fill="black" stroke="none" font-family="sans-serif" font-size="11pt" font-style="normal" font-weight="normal" text-decoration="normal" x="409.0855876007779" y="1388.7664377581818" text-anchor="start" dominant-baseline="alphabetic" xml:space="preserve">sendSideChoice</text></g><g><path fill="none" stroke="black" paint-order="fill stroke markers" d=" M 323.36227610077793 1398.8188705581817 L 590.5676385356868 1398.8188705581817" stroke-miterlimit="10" stroke-width="2.094256833333333" stroke-dasharray="10.0524328"/><g transform="translate(611.2588960490201,1398.8188705581817) translate(-611.2588960490201,-1398.8188705581817)"><path fill="black" stroke="none" paint-order="stroke fill markers" d=" M 590.3163277156867 1388.347586391515 L 611.2588960490201 1398.8188705581817 L 590.3163277156867 1409.2901547248484 Z"/></g></g><g><rect fill="white" stroke="none" x="666.1284250823535" y="1436.5154935581818" width="142.25598414589842" height="32.6704066"/><text fill="black" stroke="none" font-family="sans-serif" font-size="11pt" font-style="normal" font-weight="normal" text-decoration="normal" x="669.8980873823535" y="1459.1334673581819" text-anchor="start" dominant-baseline="alphabetic" xml:space="preserve">receiveSideChoice</text></g><g><path fill="none" stroke="black" paint-order="fill stroke markers" d=" M 636.3899780490201 1469.1859001581818 L 736.9143060490201 1469.1859001581818 L 736.9143060490201 1501.8563067581817 L 657.0812355623534 1501.8563067581817" stroke-miterlimit="10" stroke-width="2.094256833333333" stroke-dasharray="10.0524328"/><g transform="translate(636.3899780490201,1501.8563067581817) translate(-636.3899780490201,-1501.8563067581817)"><path fill="black" stroke="none" paint-order="stroke fill markers" d=" M 657.3325463823535 1491.385022591515 L 636.3899780490201 1501.8563067581817 L 657.3325463823535 1512.3275909248484 Z"/></g></g><g><rect fill="white" stroke="none" x="340.53518213411127" y="1602.3806347581817" width="232.02266200234374" height="32.6704066"/><text fill="black" stroke="none" font-family="sans-serif" font-size="11pt" font-style="normal" font-weight="normal" text-decoration="normal" x="344.30484443411126" y="1624.9986085581818" text-anchor="start" dominant-baseline="alphabetic" xml:space="preserve">initializeNcursesEnvironment()</text></g><g><path fill="none" stroke="black" paint-order="fill stroke markers" d=" M 310.79673510077794 1635.0510413581817 L 411.3210631007779 1635.0510413581817 L 411.3210631007779 1667.7214479581817 L 331.48799261411125 1667.7214479581817" stroke-miterlimit="10" stroke-width="2.094256833333333" stroke-dasharray=""/><g transform="translate(310.79673510077794,1667.7214479581817) translate(-310.79673510077794,-1667.7214479581817)"><path fill="black" stroke="none" paint-order="stroke fill markers" d=" M 331.73930343411126 1657.250163791515 L 310.79673510077794 1667.7214479581817 L 331.73930343411126 1678.1927321248484 Z"/></g></g><g><rect fill="white" stroke="none" x="653.5628840823535" y="1705.4180709581817" width="232.02266200234374" height="32.6704066"/><text fill="black" stroke="none" font-family="sans-serif" font-size="11pt" font-style="normal" font-weight="normal" text-decoration="normal" x="657.3325463823536" y="1728.0360447581818" text-anchor="start" dominant-baseline="alphabetic" xml:space="preserve">initializeNcursesEnvironment()</text></g><g><path fill="none" stroke="black" paint-order="fill stroke markers" d=" M 623.8244370490202 1738.0884775581817 L 724.3487650490201 1738.0884775581817 L 724.3487650490201 1770.7588841581817 L 644.5156945623535 1770.7588841581817" stroke-miterlimit="10" stroke-width="2.094256833333333" stroke-dasharray=""/><g transform="translate(623.8244370490202,1770.7588841581817) translate(-623.8244370490202,-1770.7588841581817)"><path fill="black" stroke="none" paint-order="stroke fill markers" d=" M 644.7670053823535 1760.287599991515 L 623.8244370490202 1770.7588841581817 L 644.7670053823535 1781.2301683248484 Z"/></g></g><g><rect fill="white" stroke="none" x="353.10072313411126" y="1808.4555071581817" width="170.27266200234374" height="32.6704066"/><text fill="black" stroke="none" font-family="sans-serif" font-size="11pt" font-style="normal" font-weight="normal" text-decoration="normal" x="356.87038543411126" y="1831.0734809581818" text-anchor="start" dominant-baseline="alphabetic" xml:space="preserve">setBallPositionFactor()</text></g><g><path fill="none" stroke="black" paint-order="fill stroke markers" d=" M 310.79673510077794 1841.1259137581817 L 423.88660410077796 1841.1259137581817 L 423.88660410077796 1873.7963203581817 L 344.05353361411125 1873.7963203581817" stroke-miterlimit="10" stroke-width="2.094256833333333" stroke-dasharray=""/><g transform="translate(323.36227610077793,1873.7963203581817) translate(-323.36227610077793,-1873.7963203581817)"><path fill="black" stroke="none" paint-order="stroke fill markers" d=" M 344.30484443411126 1863.325036191515 L 323.36227610077793 1873.7963203581817 L 344.30484443411126 1884.2676045248484 Z"/></g></g><g><rect fill="white" stroke="none" x="666.1284250823535" y="1911.4929433581817" width="170.27266200234374" height="32.6704066"/><text fill="black" stroke="none" font-family="sans-serif" font-size="11pt" font-style="normal" font-weight="normal" text-decoration="normal" x="669.8980873823535" y="1934.1109171581818" text-anchor="start" dominant-baseline="alphabetic" xml:space="preserve">setBallPositionFactor()</text></g><g><path fill="none" stroke="black" paint-order="fill stroke markers" d=" M 623.8244370490202 1944.1633499581817 L 736.9143060490201 1944.1633499581817 L 736.9143060490201 1976.8337565581817 L 657.0812355623534 1976.8337565581817" stroke-miterlimit="10" stroke-width="2.094256833333333" stroke-dasharray=""/><g transform="translate(636.3899780490201,1976.8337565581817) translate(-636.3899780490201,-1976.8337565581817)"><path fill="black" stroke="none" paint-order="stroke fill markers" d=" M 657.3325463823535 1966.362472391515 L 636.3899780490201 1976.8337565581817 L 657.3325463823535 1987.3050407248484 Z"/></g></g><g><rect fill="white" stroke="none" x="427.1492573625455" y="2014.5303795581817" width="80.32265742470703" height="32.6704066"/><text fill="black" stroke="none" font-family="sans-serif" font-size="11pt" font-style="normal" font-weight="normal" text-decoration="normal" x="430.9189196625455" y="2037.1483533581818" text-anchor="start" dominant-baseline="alphabetic" xml:space="preserve">sendNrow</text></g><g><path fill="none" stroke="black" paint-order="fill stroke markers" d=" M 323.36227610077793 2047.2007861581817 L 590.5676385356868 2047.2007861581817" stroke-miterlimit="10" stroke-width="2.094256833333333" stroke-dasharray="10.0524328"/><g transform="translate(611.2588960490201,2047.2007861581817) translate(-611.2588960490201,-2047.2007861581817)"><path fill="black" stroke="none" paint-order="stroke fill markers" d=" M 590.3163277156867 2036.729501991515 L 611.2588960490201 2047.2007861581817 L 590.3163277156867 2057.6720703248484 Z"/></g></g><g><rect fill="white" stroke="none" x="353.10072313411126" y="2084.8974091581817" width="98.58932765175781" height="32.6704066"/><text fill="black" stroke="none" font-family="sans-serif" font-size="11pt" font-style="normal" font-weight="normal" text-decoration="normal" x="356.87038543411126" y="2107.515382958182" text-anchor="start" dominant-baseline="alphabetic" xml:space="preserve">receiveNrow</text></g><g><path fill="none" stroke="black" paint-order="fill stroke markers" d=" M 323.36227610077793 2117.5678157581815 L 423.88660410077796 2117.5678157581815 L 423.88660410077796 2150.2382223581817 L 344.05353361411125 2150.2382223581817" stroke-miterlimit="10" stroke-width="2.094256833333333" stroke-dasharray="10.0524328"/><g transform="translate(323.36227610077793,2150.2382223581817) translate(-323.36227610077793,-2150.2382223581817)"><path fill="black" stroke="none" paint-order="stroke fill markers" d=" M 344.30484443411126 2139.7669381915152 L 323.36227610077793 2150.2382223581817 L 344.30484443411126 2160.709506524848 Z"/></g></g><g><rect fill="white" stroke="none" x="427.1492573625455" y="2187.9348453581815" width="80.32265742470703" height="32.6704066"/><text fill="black" stroke="none" font-family="sans-serif" font-size="11pt" font-style="normal" font-weight="normal" text-decoration="normal" x="430.9189196625455" y="2210.5528191581816" text-anchor="start" dominant-baseline="alphabetic" xml:space="preserve">sendNrow</text></g><g><path fill="none" stroke="black" paint-order="fill stroke markers" d=" M 611.2588960490201 2220.6052519581817 L 344.05353361411125 2220.6052519581817" stroke-miterlimit="10" stroke-width="2.094256833333333" stroke-dasharray="10.0524328"/><g transform="translate(323.36227610077793,2220.6052519581817) translate(-323.36227610077793,-2220.6052519581817)"><path fill="black" stroke="none" paint-order="stroke fill markers" d=" M 344.30484443411126 2210.1339677915153 L 323.36227610077793 2220.6052519581817 L 344.30484443411126 2231.076536124848 Z"/></g></g><g><rect fill="white" stroke="none" x="666.1284250823535" y="2258.301874958182" width="98.58932765175781" height="32.6704066"/><text fill="black" stroke="none" font-family="sans-serif" font-size="11pt" font-style="normal" font-weight="normal" text-decoration="normal" x="669.8980873823535" y="2280.919848758182" text-anchor="start" dominant-baseline="alphabetic" xml:space="preserve">receiveNrow</text></g><g><path fill="none" stroke="black" paint-order="fill stroke markers" d=" M 636.3899780490201 2290.9722815581817 L 736.9143060490201 2290.9722815581817 L 736.9143060490201 2323.642688158182 L 657.0812355623534 2323.642688158182" stroke-miterlimit="10" stroke-width="2.094256833333333" stroke-dasharray="10.0524328"/><g transform="translate(636.3899780490201,2323.642688158182) translate(-636.3899780490201,-2323.642688158182)"><path fill="black" stroke="none" paint-order="stroke fill markers" d=" M 657.3325463823535 2313.1714039915155 L 636.3899780490201 2323.642688158182 L 657.3325463823535 2334.1139723248484 Z"/></g></g><g><rect fill="white" stroke="none" x="353.10072313411126" y="2424.167016158182" width="95.60599024941406" height="32.6704066"/><text fill="black" stroke="none" font-family="sans-serif" font-size="11pt" font-style="normal" font-weight="normal" text-decoration="normal" x="356.87038543411126" y="2446.784989958182" text-anchor="start" dominant-baseline="alphabetic" xml:space="preserve">gameLoop()</text></g><g><path fill="none" stroke="black" paint-order="fill stroke markers" d=" M 310.79673510077794 2456.8374227581817 L 423.88660410077796 2456.8374227581817 L 423.88660410077796 2489.507829358182 L 344.05353361411125 2489.507829358182" stroke-miterlimit="10" stroke-width="2.094256833333333" stroke-dasharray=""/><g transform="translate(323.36227610077793,2489.507829358182) translate(-323.36227610077793,-2489.507829358182)"><path fill="black" stroke="none" paint-order="stroke fill markers" d=" M 344.30484443411126 2479.0365451915154 L 323.36227610077793 2489.507829358182 L 344.30484443411126 2499.9791135248483 Z"/></g></g><g><rect fill="white" stroke="none" x="666.1284250823535" y="2527.204452358182" width="95.60599024941406" height="32.6704066"/><text fill="black" stroke="none" font-family="sans-serif" font-size="11pt" font-style="normal" font-weight="normal" text-decoration="normal" x="669.8980873823535" y="2549.822426158182" text-anchor="start" dominant-baseline="alphabetic" xml:space="preserve">gameLoop()</text></g><g><path fill="none" stroke="black" paint-order="fill stroke markers" d=" M 623.8244370490202 2559.874858958182 L 736.9143060490201 2559.874858958182 L 736.9143060490201 2592.545265558182 L 657.0812355623534 2592.545265558182" stroke-miterlimit="10" stroke-width="2.094256833333333" stroke-dasharray=""/><g transform="translate(636.3899780490201,2592.545265558182) translate(-636.3899780490201,-2592.545265558182)"><path fill="black" stroke="none" paint-order="stroke fill markers" d=" M 657.3325463823535 2582.0739813915156 L 636.3899780490201 2592.545265558182 L 657.3325463823535 2603.0165497248486 Z"/></g></g><path fill="white" stroke="black" paint-order="fill stroke markers" d=" M 275.6132203007779 2630.241888558182 L 611.2588960490201 2630.241888558182 L 633.8768698490201 2652.859862358182 L 633.8768698490201 2688.043377158182 L 275.6132203007779 2688.043377158182 L 275.6132203007779 2630.241888558182 M 611.2588960490201 2630.241888558182 L 611.2588960490201 2652.859862358182 L 633.8768698490201 2652.859862358182" stroke-miterlimit="10" stroke-width="2.094256833333333" stroke-dasharray=""/><g><text fill="black" stroke="none" font-family="sans-serif" font-size="11pt" font-style="normal" font-weight="normal" text-decoration="normal" x="329.6450466007779" y="2665.425403358182" text-anchor="start" dominant-baseline="alphabetic" xml:space="preserve">Game Loop (details were omitted)</text></g><g><rect fill="white" stroke="none" x="426.6409222490201" y="2793.593921558182" width="81.33932765175781" height="32.6704066"/><text fill="black" stroke="none" font-family="sans-serif" font-size="11pt" font-style="normal" font-weight="normal" text-decoration="normal" x="430.4105845490201" y="2816.211895358182" text-anchor="start" dominant-baseline="alphabetic" xml:space="preserve">sendBall()</text></g><g><path fill="none" stroke="black" paint-order="fill stroke markers" d=" M 323.36227610077793 2826.2643281581823 L 590.5676385356868 2826.2643281581823" stroke-miterlimit="10" stroke-width="2.094256833333333" stroke-dasharray="10.0524328"/><g transform="translate(611.2588960490201,2826.2643281581823) translate(-611.2588960490201,-2826.2643281581823)"><path fill="black" stroke="none" paint-order="stroke fill markers" d=" M 590.3163277156867 2815.793043991516 L 611.2588960490201 2826.2643281581823 L 590.3163277156867 2836.7356123248487 Z"/></g></g><g><rect fill="white" stroke="none" x="426.6409222490201" y="2863.960951158182" width="81.33932765175781" height="32.6704066"/><text fill="black" stroke="none" font-family="sans-serif" font-size="11pt" font-style="normal" font-weight="normal" text-decoration="normal" x="430.4105845490201" y="2886.578924958182" text-anchor="start" dominant-baseline="alphabetic" xml:space="preserve">sendBall()</text></g><g><path fill="none" stroke="black" paint-order="fill stroke markers" d=" M 611.2588960490201 2896.6313577581823 L 344.05353361411125 2896.6313577581823" stroke-miterlimit="10" stroke-width="2.094256833333333" stroke-dasharray="10.0524328"/><g transform="translate(323.36227610077793,2896.6313577581823) translate(-323.36227610077793,-2896.6313577581823)"><path fill="black" stroke="none" paint-order="stroke fill markers" d=" M 344.30484443411126 2886.160073591516 L 323.36227610077793 2896.6313577581823 L 344.30484443411126 2907.1026419248487 Z"/></g></g><g><rect fill="white" stroke="none" x="653.5628840823535" y="3034.852308758182" width="210.50598414589842" height="32.6704066"/><text fill="black" stroke="none" font-family="sans-serif" font-size="11pt" font-style="normal" font-weight="normal" text-decoration="normal" x="657.3325463823536" y="3057.470282558182" text-anchor="start" dominant-baseline="alphabetic" xml:space="preserve">finishNcursesEnvironment()</text></g><g><path fill="none" stroke="black" paint-order="fill stroke markers" d=" M 623.8244370490202 3067.522715358182 L 724.3487650490201 3067.522715358182 L 724.3487650490201 3100.193121958182 L 644.5156945623535 3100.193121958182" stroke-miterlimit="10" stroke-width="2.094256833333333" stroke-dasharray=""/><g transform="translate(623.8244370490202,3100.193121958182) translate(-623.8244370490202,-3100.193121958182)"><path fill="black" stroke="none" paint-order="stroke fill markers" d=" M 644.7670053823535 3089.7218377915156 L 623.8244370490202 3100.193121958182 L 644.7670053823535 3110.6644061248485 Z"/></g></g><g><rect fill="white" stroke="none" x="340.53518213411127" y="3137.8897449581823" width="210.50598414589842" height="32.6704066"/><text fill="black" stroke="none" font-family="sans-serif" font-size="11pt" font-style="normal" font-weight="normal" text-decoration="normal" x="344.30484443411126" y="3160.5077187581824" text-anchor="start" dominant-baseline="alphabetic" xml:space="preserve">finishNcursesEnvironment()</text></g><g><path fill="none" stroke="black" paint-order="fill stroke markers" d=" M 310.79673510077794 3170.560151558182 L 411.3210631007779 3170.560151558182 L 411.3210631007779 3203.2305581581822 L 331.48799261411125 3203.2305581581822" stroke-miterlimit="10" stroke-width="2.094256833333333" stroke-dasharray=""/><g transform="translate(310.79673510077794,3203.2305581581822) translate(-310.79673510077794,-3203.2305581581822)"><path fill="black" stroke="none" paint-order="stroke fill markers" d=" M 331.73930343411126 3192.759273991516 L 310.79673510077794 3203.2305581581822 L 331.73930343411126 3213.7018423248487 Z"/></g></g><g><rect fill="white" stroke="none" x="653.5628840823535" y="3240.9271811581825" width="105.65599330117188" height="32.6704066"/><text fill="black" stroke="none" font-family="sans-serif" font-size="11pt" font-style="normal" font-weight="normal" text-decoration="normal" x="657.3325463823536" y="3263.5451549581826" text-anchor="start" dominant-baseline="alphabetic" xml:space="preserve">closeSocket()</text></g><g><path fill="none" stroke="black" paint-order="fill stroke markers" d=" M 623.8244370490202 3273.5975877581823 L 724.3487650490201 3273.5975877581823 L 724.3487650490201 3306.2679943581825 L 644.5156945623535 3306.2679943581825" stroke-miterlimit="10" stroke-width="2.094256833333333" stroke-dasharray=""/><g transform="translate(623.8244370490202,3306.2679943581825) translate(-623.8244370490202,-3306.2679943581825)"><path fill="black" stroke="none" paint-order="stroke fill markers" d=" M 644.7670053823535 3295.796710191516 L 623.8244370490202 3306.2679943581825 L 644.7670053823535 3316.739278524849 Z"/></g></g><g><rect fill="white" stroke="none" x="340.53518213411127" y="3343.9646173581827" width="105.65599330117188" height="32.6704066"/><text fill="black" stroke="none" font-family="sans-serif" font-size="11pt" font-style="normal" font-weight="normal" text-decoration="normal" x="344.30484443411126" y="3366.582591158183" text-anchor="start" dominant-baseline="alphabetic" xml:space="preserve">closeSocket()</text></g><g><path fill="none" stroke="black" paint-order="fill stroke markers" d=" M 310.79673510077794 3376.6350239581825 L 411.3210631007779 3376.6350239581825 L 411.3210631007779 3409.3054305581827 L 331.48799261411125 3409.3054305581827" stroke-miterlimit="10" stroke-width="2.094256833333333" stroke-dasharray=""/><g transform="translate(310.79673510077794,3409.3054305581827) translate(-310.79673510077794,-3409.3054305581827)"><path fill="black" stroke="none" paint-order="stroke fill markers" d=" M 331.73930343411126 3398.8341463915162 L 310.79673510077794 3409.3054305581827 L 331.73930343411126 3419.776714724849 Z"/></g></g><g><g/><path fill="none" stroke="black" paint-order="fill stroke markers" d=" M 185.14132510077795 2725.7400001581823 L 699.2176830490201 2725.7400001581823 L 699.2176830490201 2934.327980758182 L 185.14132510077795 2934.327980758182 L 185.14132510077795 2725.7400001581823 Z" stroke-miterlimit="10" stroke-width="3.590154571428571" stroke-dasharray=""/><path fill="white" stroke="black" paint-order="fill stroke markers" d=" M 185.14132510077795 2725.7400001581823 L 185.14132510077795 2755.8972985581822 L 263.98682306989417 2755.8972985581822 L 279.06547226989414 2740.8186493581825 L 279.06547226989414 2725.7400001581823 L 185.14132510077795 2725.7400001581823" stroke-miterlimit="10" stroke-width="3.590154571428571" stroke-dasharray=""/><text fill="black" stroke="none" font-family="sans-serif" font-size="8.8pt" font-style="normal" font-weight="bold" text-decoration="normal" x="210.27240710077794" y="2745.844865758182" text-anchor="start" dominant-baseline="alphabetic" xml:space="preserve">loop</text><g><rect fill="white" stroke="none" x="300.42689196989414" y="2727.750486718182" width="337.22264369179686" height="26.13632528"/></g><text fill="black" stroke="none" font-family="sans-serif" font-size="8.8pt" font-style="normal" font-weight="bold" text-decoration="normal" x="304.19655426989414" y="2745.844865758182" text-anchor="start" dominant-baseline="alphabetic" xml:space="preserve">["until one side calls sendEndOfGameMessage()"]</text></g></g><g/><g/><g/><g/></g></svg>